<svg xmlns="http://www.w3.org/2000/svg" width="24" height="24" viewBox="0 0 24 24">
    <path d="M12 0c-6.627 0-12 5.373-12 12 0 5.305 3.438 9.8 8.125 11.387.594.115.812-.258.812-.575v-2.121c-3.313.722-4.013-1.598-4.013-1.598-.54-1.371-1.317-1.735-1.317-1.735-1.079-.739.082-.724.082-.724 1.194.084 1.822 1.226 1.822 1.226 1.068 1.833 2.804 1.3 3.488.993.109-.774.418-1.3.761-1.598-2.666-.303-5.467-1.333-5.467-5.93 0-1.31.467-2.379 1.236-3.219-.124-.303-.537-1.525.117-3.175 0 0 1.008-.322 3.303 1.226.958-.266 1.99-.399 3.016-.403 1.025.004 2.057.137 3.017.403 2.295-1.548 3.303-1.226 3.303-1.226.654 1.65.242 2.872.118 3.175.77.84 1.236 1.91 1.236 3.219 0 4.613-2.81 5.624-5.48 5.924.432.374.814 1.11.814 2.237v3.323c0 .318.218.692.821.575a12.007 12.007 0 0 0 8.136-11.226c0-6.627-5.373-12-12-12z"/>
  </svg>
  