<svg xmlns="http://www.w3.org/2000/svg" width="24" height="24" viewBox="0 0 24 24">
    <path d="M22.225 0h-20.45c-1.079 0-1.975.896-1.975 1.975v20.05c0 1.079.896 1.975 1.975 1.975h20.45c1.079 0 1.975-.896 1.975-1.975v-20.05c0-1.079-.896-1.975-1.975-1.975zm-13.5 20.452h-3.582v-11.689h3.582v11.689zm-1.791-13.315c-1.141 0-2.065-.927-2.065-2.07s.924-2.069 2.065-2.069c1.14 0 2.065.927 2.065 2.069 0 1.143-.925 2.07-2.065 2.07zm14.615 13.315h-3.583v-6.563c0-1.572-.03-3.591-2.183-3.591-2.183 0-2.518 1.693-2.518 3.443v6.711h-3.583v-11.689h3.438v1.595h.049c.48-.909 1.651-1.868 3.395-1.868 3.624 0 4.292 2.38 4.292 5.483v6.479z"/>
  </svg>
  